<svg width="100" height="100" viewBox="0 0 100 100" fill="none" xmlns="http://www.w3.org/2000/svg">

<!--  Skills  -->
    <g id="figma">
        <path d="M63.8833 36.1167C67.4928 36.0084 70.9181 34.4984 73.4329 31.907C75.9477 29.3156 77.3542 25.8466 77.3542 22.2355C77.3542 18.6244 75.9477 15.1554 73.4329 12.564C70.9181 9.97255 67.4928 8.46257 63.8833 8.35425H36.1167C32.5072 8.46257 29.0819 9.97255 26.5671 12.564C24.0523 15.1554 22.6458 18.6244 22.6458 22.2355C22.6458 25.8466 24.0523 29.3156 26.5671 31.907C29.0819 34.4984 32.5072 36.0084 36.1167 36.1167C32.4757 36.1798 29.0051 37.6705 26.4526 40.2676C23.9 42.8648 22.4697 46.3606 22.4697 50.0022C22.4697 53.6437 23.9 57.1395 26.4526 59.7367C29.0051 62.3338 32.4757 63.8245 36.1167 63.8876C32.4935 63.9764 29.0485 65.478 26.5173 68.072C23.9862 70.6659 22.5693 74.1466 22.5693 77.7709C22.5693 81.3952 23.9862 84.8759 26.5173 87.4698C29.0485 90.0638 32.4935 91.5655 36.1167 91.6542C39.7988 91.652 43.3294 90.188 45.9327 87.584C48.536 84.9799 49.9989 81.4489 50 77.7667V36.1167H63.8833Z" fill="white" fill-opacity="0.5"/>
        <path d="M63.8833 63.8834C71.5509 63.8834 77.7667 57.6676 77.7667 50C77.7667 42.3325 71.5509 36.1167 63.8833 36.1167C56.2158 36.1167 50 42.3325 50 50C50 57.6676 56.2158 63.8834 63.8833 63.8834Z" fill="white" fill-opacity="0.5"/>
    </g>
    <g id="html">
        <path d="M14.1798 9.375L20.6251 82.2852L50.0001 90.625L79.258 82.2852L85.8302 9.375H14.1798ZM72.2853 26.6699L71.8166 31.2793L71.6505 33.1836H37.3341L38.1349 42.3828H70.8595L70.5373 44.7559L68.4669 68.4082L68.3009 69.9902L50.0392 75.0293V75.0586H49.922L49.8927 75.0684V75.0586H49.883L31.465 69.9805L30.3517 55.8594H39.2482L39.883 63.0078L49.883 65.7129H49.922L59.883 63.0176L60.9962 51.4355H49.8927V51.4258H29.883L27.6564 26.6699L27.4904 24.2969H72.4415L72.2853 26.6699V26.6699Z" fill="white" fill-opacity="0.5"/>
    </g>
    <g id="css">
        <path d="M17.4667 13.0957H82.5292L76.6125 79.904L49.9292 87.454L23.3917 79.8999L17.4667 13.0957ZM70.4167 26.7665L29.5833 26.7582L30.2417 34.879L61.6125 34.8874L60.825 43.304H40.25L40.9958 51.2749H60.15L59.0167 62.1915L50 64.6832L40.8458 62.1707L40.2583 55.6332H32.175L33.075 67.579L50 72.8499L66.6458 68.1124L70.4167 26.7665Z" fill="white" fill-opacity="0.5"/>
    </g>
    <g id="sass">
        <path d="M47.1624 69.2063C47.0687 69.3751 47.1156 69.3001 47.1624 69.2063V69.2063ZM86.0874 55.6126C82.9437 55.6126 79.8437 56.3313 77.0249 57.7219C76.1031 55.8626 75.1499 54.2376 74.9937 53.0188C74.8062 51.5969 74.6031 50.7532 74.8218 49.0657C75.0406 47.3782 76.0249 44.9876 76.0093 44.8157C75.9937 44.6438 75.7906 43.7844 73.7749 43.7688C71.7593 43.7532 70.0249 44.1594 69.8218 44.6907C69.4652 45.6613 69.1882 46.6594 68.9937 47.6751C68.6343 49.5032 64.9656 56.0344 62.8874 59.4407C62.1999 58.1126 61.6218 56.9407 61.4968 56.0032C61.3093 54.5813 61.1062 53.7376 61.3249 52.0501C61.5437 50.3626 62.5281 47.9719 62.5124 47.8001C62.4968 47.6282 62.2937 46.7688 60.2812 46.7532C58.2687 46.7376 56.5312 47.1438 56.3281 47.6751C56.1249 48.2063 55.9062 49.4563 55.4999 50.6594C55.0937 51.8626 50.2031 62.7376 48.9249 65.5657C48.2687 67.0032 47.7062 68.1594 47.2999 68.9407C47.2374 69.0657 47.1906 69.1438 47.1593 69.2063C47.2062 69.1282 47.2374 69.0501 47.2374 69.0813C46.8937 69.7532 46.6906 70.1282 46.6906 70.1282V70.1438C46.4249 70.6438 46.1281 71.0969 45.9874 71.0969C45.8937 71.0969 45.6906 69.7844 46.0343 67.9876C46.7687 64.2063 48.5031 58.3313 48.4874 58.1282C48.4718 58.0188 48.8156 57.0032 47.3468 56.4563C45.9249 55.9407 45.4093 56.8001 45.2843 56.8001C45.1593 56.8001 45.0656 57.1126 45.0656 57.1126C45.0656 57.1126 46.6437 50.4876 42.0343 50.4876C39.1593 50.4876 35.1593 53.6438 33.1937 56.5032C31.9593 57.1751 29.2874 58.6282 26.4749 60.1751L23.2406 61.9563C23.1624 61.8782 23.0999 61.8001 23.0218 61.7219C17.4281 55.7532 7.10307 51.5344 7.54057 43.5188C7.69682 40.5969 8.71244 32.9251 27.3968 23.6126C42.7093 15.9876 54.9499 18.0813 57.0593 22.7376C60.0906 29.3782 50.5124 41.7376 34.6124 43.5188C28.5499 44.1907 25.3656 41.8469 24.5687 40.9719C23.7406 40.0501 23.6156 40.0032 23.3031 40.1751C22.7874 40.4563 23.1156 41.2688 23.3031 41.7532C23.7718 42.9876 25.7249 45.1751 29.0531 46.2688C31.9749 47.2219 39.0812 47.7532 47.6718 44.4251C57.3249 40.7063 64.8406 30.3469 62.6343 21.6751C60.3906 12.8626 45.7781 9.97194 31.9624 14.8782C23.7281 17.8001 14.8249 22.3938 8.42182 28.3782C0.81244 35.5032 -0.403185 41.7063 0.0968153 44.3001C1.87807 53.5032 14.5624 59.5032 19.6374 63.9407L18.9343 64.3313C16.3874 65.5969 6.71869 70.6594 4.29682 76.0032C1.56244 82.0657 4.74994 86.4094 6.84057 87.0032C13.3718 88.8157 20.0562 85.5501 23.6499 80.1907C27.2437 74.8313 26.8062 67.8313 25.1499 64.6438C25.1343 64.5969 25.1031 64.5657 25.0874 64.5188C26.9624 63.4083 28.8532 62.3248 30.7593 61.2688C30.1343 62.9563 29.6812 64.9876 29.4468 67.9251C29.1656 71.3626 30.5874 75.8157 32.4312 77.5657C33.2437 78.3313 34.2249 78.3469 34.8374 78.3469C36.9937 78.3469 37.9624 76.5657 39.0406 74.4407C40.3687 71.8469 41.5406 68.8313 41.5406 68.8313C41.5406 68.8313 40.0718 76.9876 44.0874 76.9876C45.5562 76.9876 47.0249 75.0969 47.6812 74.1282V74.1438C47.6812 74.1438 47.7124 74.0813 47.7906 73.9563C47.9468 73.7219 48.0249 73.5813 48.0249 73.5813V73.5344C48.6187 72.5188 49.9156 70.1907 51.8687 66.3469C54.3999 61.3782 56.8187 55.1751 56.8187 55.1751C57.0531 56.5376 57.3781 57.8844 57.7874 59.2063C58.2249 60.6907 59.1468 62.3157 59.8812 63.8938C59.2874 64.7063 58.9281 65.1751 58.9281 65.1751C58.9281 65.1876 58.9343 65.1969 58.9437 65.2063C58.4749 65.8313 57.9437 66.5032 57.3968 67.1594C55.3999 69.5344 53.0218 72.2532 52.7093 73.0344C52.3343 73.9563 52.4281 74.6438 53.1468 75.1751C53.6781 75.5813 54.6156 75.6438 55.5999 75.5657C57.3968 75.4407 58.6624 75.0032 59.2718 74.7219C60.3958 74.3192 61.4581 73.7618 62.4281 73.0657C64.3812 71.6282 65.5687 69.5657 65.4593 66.8469C65.3968 65.3469 64.9124 63.8469 64.3187 62.4407C64.4906 62.1907 64.6781 61.9251 64.8499 61.6594C66.8833 58.6255 68.7153 55.4614 70.3343 52.1876C70.5687 53.5501 70.8906 54.8969 71.3031 56.2188C71.6781 57.4844 72.4124 58.8751 73.0843 60.2344C70.1781 62.5938 68.3812 65.3282 67.7593 67.1251C66.6031 70.4532 67.5093 71.9532 69.2124 72.2969C69.9781 72.4532 71.0718 72.0938 71.8843 71.7501C73.0906 71.3469 74.2281 70.7626 75.2562 70.0157C77.2093 68.5782 79.0999 66.5626 78.9718 63.8282C78.9249 62.5938 78.5812 61.3594 78.1281 60.1719C80.5812 59.1407 83.7687 58.5782 87.8312 59.0469C96.5312 60.0626 98.2343 65.5001 97.9062 67.7657C97.5781 70.0313 95.7499 71.2969 95.1406 71.6719C94.5312 72.0469 94.3437 72.1876 94.3906 72.4688C94.4687 72.8751 94.7499 72.8594 95.2656 72.7657C95.9843 72.6407 99.8281 70.9219 100 66.7188C100.25 61.4063 95.1406 55.5626 86.0937 55.6094L86.0874 55.6126ZM19.0281 78.2219C16.1531 81.3626 12.1249 82.5501 10.3906 81.5501C8.53119 80.4688 9.26557 75.8469 12.8093 72.5001C14.9656 70.4688 17.7468 68.5938 19.5906 67.4376C20.0124 67.1876 20.6218 66.8126 21.3718 66.3594C21.4328 66.3204 21.4953 66.2839 21.5593 66.2501C21.6999 66.1563 21.8562 66.0782 22.0124 65.9844C23.3062 70.7344 22.0593 74.9219 19.0281 78.2188V78.2219ZM40.0218 63.9407C39.0218 66.3938 36.9156 72.6438 35.6312 72.3157C34.5374 72.0344 33.8656 67.2688 35.4124 62.5813C36.1937 60.2219 37.8499 57.4094 38.8343 56.3157C40.4124 54.5501 42.1468 53.9876 42.5531 54.6907C43.0999 55.6126 40.6468 62.4094 40.0218 63.9407ZM57.3656 72.2219C56.9437 72.4407 56.5531 72.5813 56.3656 72.4719C56.2249 72.3938 56.5374 72.0969 56.5374 72.0969C56.5374 72.0969 58.7093 69.7688 59.5687 68.7063C60.0687 68.0813 60.6468 67.3469 61.2718 66.5344C61.2718 66.6126 61.2874 66.6907 61.2874 66.7844C61.2687 69.5813 58.5812 71.4719 57.3624 72.2219H57.3656ZM70.7406 69.1751C70.4281 68.9563 70.4749 68.2219 71.5218 65.9407C71.9281 65.0501 72.8656 63.5501 74.4906 62.1126C74.6749 62.6563 74.7749 63.2251 74.7874 63.8001C74.7718 67.3157 72.2562 68.6282 70.7406 69.1751Z" fill="white" fill-opacity="0.5"/>
    </g>
    <g id="react">
        <path d="M100 48.7043C100 42.0793 91.7042 35.8001 78.9833 31.9084C81.9208 18.9459 80.6167 8.62925 74.8667 5.32508C73.4734 4.54475 71.8965 4.15197 70.3 4.18758V8.72925C71.2375 8.72925 71.9917 8.91675 72.625 9.26258C75.3958 10.8542 76.6 16.9043 75.6625 24.6917C75.4375 26.6084 75.0708 28.6251 74.6208 30.6834C70.361 29.6569 66.0375 28.915 61.6792 28.4626C59.0827 24.8805 56.25 21.4757 53.2 18.2709C59.8458 12.0959 66.0833 8.71258 70.325 8.71258V4.16675C64.7167 4.16675 57.3792 8.16258 49.9583 15.0917C42.5417 8.20842 35.2 4.25008 29.5958 4.25008V8.79175C33.8167 8.79175 40.075 12.1584 46.7208 18.2917C43.8667 21.2917 41.0125 24.6917 38.3 28.4626C33.9326 28.91 29.6015 29.659 25.3375 30.7043C24.8667 28.6667 24.5208 26.6918 24.275 24.7959C23.3167 17.0042 24.5 10.9542 27.2542 9.34592C27.8625 8.97925 28.6583 8.81258 29.5958 8.81258V4.27091C27.8875 4.27091 26.3333 4.63758 24.9917 5.40841C19.2625 8.71258 17.9792 19.0042 20.9333 31.9293C8.25417 35.8459 0 42.1001 0 48.7043C0 55.3293 8.29583 61.6084 21.0167 65.4959C18.0792 78.4626 19.3833 88.7793 25.1333 92.0793C26.4583 92.8543 28.0083 93.2209 29.7167 93.2209C35.325 93.2209 42.6625 89.2251 50.0833 82.2959C57.5 89.1834 64.8375 93.1376 70.4458 93.1376C72.0546 93.1716 73.6435 92.7776 75.05 91.9959C80.7792 88.6959 82.0625 78.4043 79.1083 65.4793C91.7458 61.5876 100 55.3084 100 48.7043ZM73.4583 35.1084C72.6666 37.8328 71.7489 40.519 70.7083 43.1584C69.0048 39.8449 67.1344 36.6199 65.1042 33.4959C68 33.9251 70.7917 34.4542 73.4625 35.1084H73.4583ZM64.125 56.8167C62.5375 59.5667 60.9042 62.1793 59.2125 64.6043C53.0969 65.1433 46.946 65.1502 40.8292 64.6251C37.3206 59.6133 34.2522 54.3074 31.6583 48.7668C34.2483 43.213 37.3036 37.8885 40.7917 32.8501C46.9058 32.31 53.0553 32.3016 59.1708 32.8251C60.8625 35.2501 62.5167 37.8418 64.1042 40.5751C65.6542 43.2417 67.0625 45.9501 68.3458 48.6834C67.0483 51.4499 65.6402 54.1632 64.125 56.8167ZM70.7083 54.1668C71.8083 56.8959 72.75 59.6292 73.5208 62.2793C70.8542 62.9334 68.0375 63.4834 65.125 63.9084C67.1468 60.756 69.0103 57.5047 70.7083 54.1668ZM50.0417 75.9167C48.1458 73.9584 46.25 71.7793 44.375 69.3917C46.2083 69.4751 48.0833 69.5376 49.9792 69.5376C51.8958 69.5376 53.7917 69.4959 55.6458 69.3917C53.8125 71.7793 51.9167 73.9584 50.0417 75.9167ZM34.875 63.9084C32.0656 63.5014 29.2765 62.9647 26.5167 62.3001C27.2708 59.6709 28.2083 56.9584 29.2667 54.2501C30.1042 55.8751 30.9833 57.5084 31.9417 59.1418C32.9 60.7709 33.875 62.3626 34.875 63.9084ZM49.9375 21.4917C51.8333 23.4501 53.7292 25.6292 55.6042 28.0168C53.7708 27.9334 51.8958 27.8709 50 27.8709C48.0833 27.8709 46.1875 27.9126 44.3333 28.0168C46.1667 25.6292 48.0625 23.4501 49.9375 21.4917ZM34.8542 33.5001C32.8328 36.6456 30.9694 39.8899 29.2708 43.2209C28.2009 40.5645 27.2623 37.8571 26.4583 35.1084C29.125 34.4751 31.9417 33.9251 34.8542 33.5001ZM16.4083 59.0168C9.19167 55.9417 4.525 51.9043 4.525 48.7043C4.525 45.5043 9.19167 41.4459 16.4083 38.3918C18.1583 37.6376 20.075 36.9626 22.0542 36.3334C23.2167 40.3251 24.7458 44.4834 26.6375 48.7459C24.8515 52.755 23.3411 56.8813 22.1167 61.0959C20.181 60.4966 18.276 59.8027 16.4083 59.0168ZM27.375 88.1418C24.6042 86.5584 23.4 80.5001 24.3375 72.7168C24.5625 70.8001 24.9292 68.7793 25.3792 66.7209C29.3708 67.7001 33.7333 68.4543 38.3208 68.9459C40.9174 72.528 43.7501 75.9327 46.8 79.1376C40.1542 85.3126 33.9167 88.6959 29.675 88.6959C28.8748 88.7047 28.0847 88.5157 27.375 88.1459V88.1418ZM75.725 72.6126C76.6833 80.4001 75.5 86.4543 72.7458 88.0626C72.1375 88.4293 71.3417 88.5918 70.4042 88.5918C66.1833 88.5918 59.925 85.2293 53.2792 79.0918C56.1333 76.1001 58.9875 72.6959 61.7 68.9251C66.0674 68.4777 70.3985 67.7287 74.6625 66.6834C75.1333 68.7418 75.4958 70.7168 75.725 72.6126ZM83.5708 59.0168C81.8208 59.7709 79.9042 60.4459 77.925 61.0751C76.6791 56.8389 75.1478 52.6919 73.3417 48.6626C75.2167 44.4251 76.7208 40.2876 77.8625 36.3126C79.8833 36.9417 81.7958 37.6376 83.5917 38.3918C90.8083 41.4668 95.475 45.5043 95.475 48.7043C95.4542 51.9043 90.7875 55.9626 83.5708 59.0168Z" fill="white" fill-opacity="0.5"/>
        <path d="M49.9791 58.021C52.4501 58.021 54.8198 57.0394 56.567 55.2922C58.3142 53.545 59.2958 51.1753 59.2958 48.7044C59.2958 46.2334 58.3142 43.8637 56.567 42.1165C54.8198 40.3693 52.4501 39.3877 49.9791 39.3877C47.5082 39.3877 45.1385 40.3693 43.3913 42.1165C41.644 43.8637 40.6625 46.2334 40.6625 48.7044C40.6625 51.1753 41.644 53.545 43.3913 55.2922C45.1385 57.0394 47.5082 58.021 49.9791 58.021Z" fill="white" fill-opacity="0.5"/>
    </g>

<!--  Common icons  -->
    <g>

    </g>


<!--  Socials  -->
</svg>
