<svg width="100" height="100" viewBox="0 0 100 100" fill="none" xmlns="http://www.w3.org/2000/svg">
<path d="M100 48.7043C100 42.0793 91.7042 35.8001 78.9833 31.9084C81.9208 18.9459 80.6167 8.62925 74.8667 5.32508C73.4734 4.54475 71.8965 4.15197 70.3 4.18758V8.72925C71.2375 8.72925 71.9917 8.91675 72.625 9.26258C75.3958 10.8542 76.6 16.9043 75.6625 24.6917C75.4375 26.6084 75.0708 28.6251 74.6208 30.6834C70.361 29.6569 66.0375 28.915 61.6792 28.4626C59.0827 24.8805 56.25 21.4757 53.2 18.2709C59.8458 12.0959 66.0833 8.71258 70.325 8.71258V4.16675C64.7167 4.16675 57.3792 8.16258 49.9583 15.0917C42.5417 8.20842 35.2 4.25008 29.5958 4.25008V8.79175C33.8167 8.79175 40.075 12.1584 46.7208 18.2917C43.8667 21.2917 41.0125 24.6917 38.3 28.4626C33.9326 28.91 29.6015 29.659 25.3375 30.7043C24.8667 28.6667 24.5208 26.6918 24.275 24.7959C23.3167 17.0042 24.5 10.9542 27.2542 9.34592C27.8625 8.97925 28.6583 8.81258 29.5958 8.81258V4.27091C27.8875 4.27091 26.3333 4.63758 24.9917 5.40841C19.2625 8.71258 17.9792 19.0042 20.9333 31.9293C8.25417 35.8459 0 42.1001 0 48.7043C0 55.3293 8.29583 61.6084 21.0167 65.4959C18.0792 78.4626 19.3833 88.7793 25.1333 92.0793C26.4583 92.8543 28.0083 93.2209 29.7167 93.2209C35.325 93.2209 42.6625 89.2251 50.0833 82.2959C57.5 89.1834 64.8375 93.1376 70.4458 93.1376C72.0546 93.1716 73.6435 92.7776 75.05 91.9959C80.7792 88.6959 82.0625 78.4043 79.1083 65.4793C91.7458 61.5876 100 55.3084 100 48.7043ZM73.4583 35.1084C72.6666 37.8328 71.7489 40.519 70.7083 43.1584C69.0048 39.8449 67.1344 36.6199 65.1042 33.4959C68 33.9251 70.7917 34.4542 73.4625 35.1084H73.4583ZM64.125 56.8167C62.5375 59.5667 60.9042 62.1793 59.2125 64.6043C53.0969 65.1433 46.946 65.1502 40.8292 64.6251C37.3206 59.6133 34.2522 54.3074 31.6583 48.7668C34.2483 43.213 37.3036 37.8885 40.7917 32.8501C46.9058 32.31 53.0553 32.3016 59.1708 32.8251C60.8625 35.2501 62.5167 37.8418 64.1042 40.5751C65.6542 43.2417 67.0625 45.9501 68.3458 48.6834C67.0483 51.4499 65.6402 54.1632 64.125 56.8167ZM70.7083 54.1668C71.8083 56.8959 72.75 59.6292 73.5208 62.2793C70.8542 62.9334 68.0375 63.4834 65.125 63.9084C67.1468 60.756 69.0103 57.5047 70.7083 54.1668ZM50.0417 75.9167C48.1458 73.9584 46.25 71.7793 44.375 69.3917C46.2083 69.4751 48.0833 69.5376 49.9792 69.5376C51.8958 69.5376 53.7917 69.4959 55.6458 69.3917C53.8125 71.7793 51.9167 73.9584 50.0417 75.9167ZM34.875 63.9084C32.0656 63.5014 29.2765 62.9647 26.5167 62.3001C27.2708 59.6709 28.2083 56.9584 29.2667 54.2501C30.1042 55.8751 30.9833 57.5084 31.9417 59.1418C32.9 60.7709 33.875 62.3626 34.875 63.9084ZM49.9375 21.4917C51.8333 23.4501 53.7292 25.6292 55.6042 28.0168C53.7708 27.9334 51.8958 27.8709 50 27.8709C48.0833 27.8709 46.1875 27.9126 44.3333 28.0168C46.1667 25.6292 48.0625 23.4501 49.9375 21.4917ZM34.8542 33.5001C32.8328 36.6456 30.9694 39.8899 29.2708 43.2209C28.2009 40.5645 27.2623 37.8571 26.4583 35.1084C29.125 34.4751 31.9417 33.9251 34.8542 33.5001ZM16.4083 59.0168C9.19167 55.9417 4.525 51.9043 4.525 48.7043C4.525 45.5043 9.19167 41.4459 16.4083 38.3918C18.1583 37.6376 20.075 36.9626 22.0542 36.3334C23.2167 40.3251 24.7458 44.4834 26.6375 48.7459C24.8515 52.755 23.3411 56.8813 22.1167 61.0959C20.181 60.4966 18.276 59.8027 16.4083 59.0168ZM27.375 88.1418C24.6042 86.5584 23.4 80.5001 24.3375 72.7168C24.5625 70.8001 24.9292 68.7793 25.3792 66.7209C29.3708 67.7001 33.7333 68.4543 38.3208 68.9459C40.9174 72.528 43.7501 75.9327 46.8 79.1376C40.1542 85.3126 33.9167 88.6959 29.675 88.6959C28.8748 88.7047 28.0847 88.5157 27.375 88.1459V88.1418ZM75.725 72.6126C76.6833 80.4001 75.5 86.4543 72.7458 88.0626C72.1375 88.4293 71.3417 88.5918 70.4042 88.5918C66.1833 88.5918 59.925 85.2293 53.2792 79.0918C56.1333 76.1001 58.9875 72.6959 61.7 68.9251C66.0674 68.4777 70.3985 67.7287 74.6625 66.6834C75.1333 68.7418 75.4958 70.7168 75.725 72.6126ZM83.5708 59.0168C81.8208 59.7709 79.9042 60.4459 77.925 61.0751C76.6791 56.8389 75.1478 52.6919 73.3417 48.6626C75.2167 44.4251 76.7208 40.2876 77.8625 36.3126C79.8833 36.9417 81.7958 37.6376 83.5917 38.3918C90.8083 41.4668 95.475 45.5043 95.475 48.7043C95.4542 51.9043 90.7875 55.9626 83.5708 59.0168Z" fill="white" fill-opacity="0.5"/>
<path d="M49.9791 58.021C52.4501 58.021 54.8198 57.0394 56.567 55.2922C58.3142 53.545 59.2958 51.1753 59.2958 48.7044C59.2958 46.2334 58.3142 43.8637 56.567 42.1165C54.8198 40.3693 52.4501 39.3877 49.9791 39.3877C47.5082 39.3877 45.1385 40.3693 43.3913 42.1165C41.644 43.8637 40.6625 46.2334 40.6625 48.7044C40.6625 51.1753 41.644 53.545 43.3913 55.2922C45.1385 57.0394 47.5082 58.021 49.9791 58.021Z" fill="white" fill-opacity="0.5"/>
</svg>
